<svg xmlns="http://www.w3.org/2000/svg" xmlns:xlink="http://www.w3.org/1999/xlink" width="227" zoomAndPan="magnify" viewBox="0 0 170.25 56.999997" height="76" preserveAspectRatio="xMidYMid meet" version="1.2"><defs><clipPath id="6e5d1afc31"><path d="M 8.652344 21.125 L 29.671875 21.125 L 29.671875 47.972656 L 8.652344 47.972656 Z M 8.652344 21.125 "/></clipPath><clipPath id="80e46b4e28"><path d="M 27.648438 44.40625 C 25.230469 45.808594 22.289062 46.3125 19.496094 45.785156 C 16.6875 45.28125 14.101562 43.671875 12.300781 41.402344 C 10.5 39.148438 9.519531 36.191406 9.679688 33.246094 C 9.804688 30.324219 11.019531 27.472656 13.042969 25.28125 L 13.050781 25.28125 L 13.128906 25.195312 C 15.375 22.808594 18.664062 21.332031 22.03125 21.269531 C 18.699219 21.179688 15.328125 22.441406 12.847656 24.792969 L 12.84375 24.792969 L 12.769531 24.867188 L 12.757812 24.867188 C 10.535156 27.015625 9.039062 30.011719 8.75 33.171875 C 8.425781 36.324219 9.3125 39.617188 11.203125 42.230469 C 13.066406 44.84375 15.90625 46.824219 19.105469 47.558594 C 22.289062 48.332031 25.777344 47.921875 28.730469 46.386719 C 29.039062 46.226562 29.339844 46.058594 29.636719 45.875 C 29.011719 45.378906 28.425781 44.847656 27.886719 44.257812 C 27.8125 44.3125 27.726562 44.355469 27.648438 44.40625 "/></clipPath><clipPath id="d57bdf74f7"><path d="M 20.488281 14.414062 L 36.382812 14.414062 L 36.382812 42.851562 L 20.488281 42.851562 Z M 20.488281 14.414062 "/></clipPath><clipPath id="3f394c7404"><path d="M 27.398438 23.839844 L 28.183594 24.585938 L 28.90625 25.28125 L 29.738281 26.074219 C 30.03125 26.34375 30.214844 26.5625 30.457031 26.816406 C 30.503906 26.871094 30.546875 26.914062 30.597656 26.96875 C 30.832031 27.242188 31.058594 27.523438 31.277344 27.8125 C 31.796875 28.542969 32.253906 29.339844 32.59375 30.175781 C 33.617188 32.65625 33.707031 35.546875 32.800781 38.136719 C 32.441406 39.1875 31.925781 40.183594 31.269531 41.101562 C 31.816406 41.757812 32.4375 42.347656 33.117188 42.839844 C 34.039062 41.707031 34.800781 40.445312 35.339844 39.082031 C 36.609375 35.941406 36.695312 32.320312 35.546875 29.078125 C 35.097656 27.796875 34.464844 26.582031 33.664062 25.460938 C 33.457031 25.164062 33.238281 24.871094 33.007812 24.597656 L 33 24.59375 C 32.726562 24.285156 32.429688 23.925781 32.167969 23.65625 L 31.386719 22.824219 L 30.601562 22.003906 L 29.847656 21.222656 L 29.800781 21.167969 L 23.457031 14.507812 L 20.609375 17.363281 L 27.25 23.699219 Z M 27.398438 23.839844 "/></clipPath><clipPath id="38e890ec17"><path d="M 31.261719 14.414062 L 40.621094 14.414062 L 40.621094 23.953125 L 31.261719 23.953125 Z M 31.261719 14.414062 "/></clipPath><clipPath id="468f178f95"><path d="M 33.554688 23.589844 L 33.773438 23.839844 L 33.925781 23.695312 L 40.566406 17.363281 L 37.714844 14.507812 L 31.386719 21.160156 L 31.332031 21.214844 L 32.945312 22.90625 C 33.128906 23.09375 33.34375 23.347656 33.554688 23.589844 "/></clipPath><clipPath id="223081dc71"><path d="M 24.726562 21.125 L 52.632812 21.125 L 52.632812 47.972656 L 24.726562 47.972656 Z M 24.726562 21.125 "/></clipPath><clipPath id="893392a90d"><path d="M 52.425781 33.171875 C 52.132812 30.007812 50.636719 27.011719 48.414062 24.867188 L 48.410156 24.867188 L 48.324219 24.792969 C 45.839844 22.449219 42.472656 21.183594 39.144531 21.269531 C 42.507812 21.332031 45.796875 22.808594 48.042969 25.195312 L 48.125 25.28125 L 48.128906 25.28125 C 50.160156 27.472656 51.367188 30.324219 51.496094 33.246094 C 51.652344 36.191406 50.679688 39.148438 48.871094 41.402344 C 47.074219 43.675781 44.484375 45.28125 41.675781 45.785156 C 38.882812 46.308594 35.929688 45.808594 33.523438 44.40625 C 33.445312 44.355469 33.367188 44.3125 33.289062 44.257812 C 32.976562 44.078125 32.667969 43.871094 32.382812 43.640625 C 31.71875 43.152344 31.125 42.582031 30.589844 41.964844 C 30.347656 41.683594 30.117188 41.390625 29.902344 41.089844 C 29.246094 40.175781 28.738281 39.175781 28.371094 38.128906 C 27.472656 35.546875 27.5625 32.648438 28.585938 30.171875 C 28.925781 29.332031 29.367188 28.542969 29.902344 27.8125 C 29.824219 27.714844 29.746094 27.625 29.660156 27.535156 C 29.582031 27.46875 29.488281 27.363281 29.398438 27.265625 C 29.277344 27.140625 29.15625 27.003906 28.996094 26.859375 L 27.523438 25.457031 C 26.71875 26.566406 26.085938 27.789062 25.636719 29.070312 C 24.488281 32.316406 24.570312 35.9375 25.839844 39.078125 C 26.386719 40.4375 27.144531 41.707031 28.070312 42.832031 C 28.300781 43.113281 28.53125 43.378906 28.792969 43.640625 C 29.339844 44.230469 29.941406 44.757812 30.582031 45.230469 C 30.886719 45.460938 31.210938 45.675781 31.523438 45.863281 C 31.824219 46.050781 32.125 46.222656 32.441406 46.378906 C 35.402344 47.917969 38.882812 48.324219 42.058594 47.550781 C 45.269531 46.824219 48.105469 44.835938 49.96875 42.222656 C 51.859375 39.613281 52.746094 36.320312 52.425781 33.164062 "/></clipPath><clipPath id="63c3535ee9"><path d="M 30.378906 12.648438 L 33 12.648438 L 33 19 L 30.378906 19 Z M 30.378906 12.648438 "/></clipPath><clipPath id="b5f2322439"><path d="M 30.589844 18.847656 C 30.492188 18.847656 30.40625 18.765625 30.40625 18.664062 C 30.40625 18.632812 30.414062 18.601562 30.433594 18.578125 L 32.613281 12.789062 C 32.648438 12.699219 32.753906 12.648438 32.84375 12.6875 C 32.933594 12.722656 32.984375 12.824219 32.945312 12.921875 L 30.753906 18.722656 C 30.746094 18.742188 30.734375 18.761719 30.722656 18.773438 C 30.691406 18.816406 30.636719 18.847656 30.578125 18.847656 "/></clipPath><clipPath id="3fd4b8cee4"><path d="M 30.378906 12.648438 L 36.207031 12.648438 L 36.207031 19 L 30.378906 19 Z M 30.378906 12.648438 "/></clipPath><clipPath id="e759a3ac5f"><path d="M 30.589844 18.847656 C 30.546875 18.847656 30.503906 18.828125 30.46875 18.796875 C 30.394531 18.730469 30.390625 18.613281 30.457031 18.542969 L 35.753906 12.726562 C 35.820312 12.65625 35.9375 12.648438 36.007812 12.714844 C 36.082031 12.78125 36.089844 12.898438 36.019531 12.972656 L 30.722656 18.785156 C 30.6875 18.820312 30.636719 18.847656 30.589844 18.847656 "/></clipPath><clipPath id="d61e49ac29"><path d="M 28.082031 12.648438 L 30.90625 12.648438 L 30.90625 19 L 28.082031 19 Z M 28.082031 12.648438 "/></clipPath><clipPath id="91c74dc0f7"><path d="M 30.589844 18.847656 C 30.503906 18.847656 30.433594 18.792969 30.414062 18.710938 L 28.226562 12.921875 C 28.191406 12.832031 28.238281 12.722656 28.328125 12.6875 C 28.421875 12.648438 28.53125 12.699219 28.5625 12.789062 L 30.753906 18.597656 C 30.761719 18.613281 30.765625 18.640625 30.765625 18.65625 C 30.765625 18.753906 30.6875 18.839844 30.582031 18.839844 "/></clipPath><clipPath id="e22b3f1de8"><path d="M 25.078125 12.648438 L 30.90625 12.648438 L 30.90625 19 L 25.078125 19 Z M 25.078125 12.648438 "/></clipPath><clipPath id="7efd8936e5"><path d="M 30.589844 18.847656 C 30.542969 18.847656 30.492188 18.828125 30.457031 18.785156 L 25.164062 12.972656 C 25.097656 12.898438 25.105469 12.78125 25.175781 12.714844 C 25.25 12.648438 25.363281 12.65625 25.433594 12.726562 L 30.722656 18.542969 C 30.789062 18.613281 30.785156 18.730469 30.710938 18.796875 C 30.675781 18.828125 30.632812 18.847656 30.589844 18.847656 "/></clipPath><clipPath id="ebd7fe5478"><path d="M 28.082031 9.46875 L 33 9.46875 L 33 13.179688 L 28.082031 13.179688 Z M 28.082031 9.46875 "/></clipPath><clipPath id="9e24e906ff"><path d="M 28.398438 13.039062 C 28.359375 13.039062 28.324219 13.027344 28.292969 13 C 28.214844 12.941406 28.191406 12.832031 28.25 12.746094 L 30.4375 9.667969 C 30.46875 9.625 30.515625 9.59375 30.570312 9.59375 C 30.625 9.59375 30.675781 9.605469 30.71875 9.648438 L 32.933594 12.757812 C 32.988281 12.835938 32.972656 12.953125 32.890625 13.015625 C 32.8125 13.074219 32.699219 13.054688 32.636719 12.972656 L 30.582031 10.078125 L 28.542969 12.960938 C 28.507812 13.007812 28.453125 13.039062 28.398438 13.039062 "/></clipPath><clipPath id="a277588cc8"><path d="M 25.078125 9.46875 L 34.261719 9.46875 L 34.261719 13.179688 L 25.078125 13.179688 Z M 25.078125 9.46875 "/></clipPath><clipPath id="cd7e1f3d5a"><path d="M 32.78125 13.039062 L 25.292969 13.039062 C 25.226562 13.039062 25.164062 13 25.132812 12.945312 C 25.105469 12.890625 25.105469 12.820312 25.132812 12.765625 L 26.957031 9.679688 C 26.988281 9.625 27.046875 9.585938 27.113281 9.585938 L 34.058594 9.585938 C 34.15625 9.585938 34.242188 9.667969 34.242188 9.769531 C 34.242188 9.871094 34.160156 9.953125 34.058594 9.953125 L 27.21875 9.953125 L 25.609375 12.679688 L 32.777344 12.679688 C 32.878906 12.679688 32.960938 12.757812 32.960938 12.863281 C 32.960938 12.964844 32.878906 13.042969 32.777344 13.042969 "/></clipPath><clipPath id="ff8927af7a"><path d="M 34.441406 8.761719 L 37.265625 8.761719 L 37.265625 11.589844 L 34.441406 11.589844 Z M 34.441406 8.761719 "/></clipPath><clipPath id="2561d620ee"><path d="M 34.476562 10.140625 C 35.21875 10.140625 35.820312 9.539062 35.820312 8.796875 C 35.820312 9.539062 36.429688 10.140625 37.164062 10.140625 C 36.429688 10.140625 35.820312 10.746094 35.820312 11.484375 C 35.820312 10.746094 35.21875 10.140625 34.476562 10.140625 "/></clipPath><clipPath id="690a083e0b"><path d="M 35.5 11.058594 L 37.621094 11.058594 L 37.621094 13.179688 L 35.5 13.179688 Z M 35.5 11.058594 "/></clipPath><clipPath id="c57222ad1e"><path d="M 35.644531 12.109375 C 36.191406 12.109375 36.636719 11.664062 36.636719 11.117188 C 36.636719 11.664062 37.078125 12.109375 37.617188 12.109375 C 37.078125 12.109375 36.636719 12.550781 36.636719 13.097656 C 36.636719 12.558594 36.191406 12.109375 35.644531 12.109375 "/></clipPath><clipPath id="a823b8af2c"><path d="M 33.910156 10.707031 L 35.5 10.707031 L 35.5 12.292969 L 33.910156 12.292969 Z M 33.910156 10.707031 "/></clipPath><clipPath id="824d4d87d4"><path d="M 33.980469 11.484375 C 34.367188 11.484375 34.683594 11.167969 34.683594 10.777344 C 34.683594 11.167969 35 11.484375 35.390625 11.484375 C 35 11.484375 34.683594 11.796875 34.683594 12.1875 C 34.683594 11.796875 34.367188 11.484375 33.980469 11.484375 "/></clipPath></defs><g id="58a83d7ac3"><g clip-rule="nonzero" clip-path="url(#6e5d1afc31)"><g clip-rule="nonzero" clip-path="url(#80e46b4e28)"><path style=" stroke:none;fill-rule:nonzero;fill:#f3f5f9;fill-opacity:1;" d="M 5.648438 5.757812 L 55.457031 5.757812 L 55.457031 50.976562 L 5.648438 50.976562 Z M 5.648438 5.757812 "/></g></g><g clip-rule="nonzero" clip-path="url(#d57bdf74f7)"><g clip-rule="nonzero" clip-path="url(#3f394c7404)"><path style=" stroke:none;fill-rule:nonzero;fill:#ffffff;fill-opacity:1;" d="M 5.648438 5.757812 L 55.457031 5.757812 L 55.457031 50.976562 L 5.648438 50.976562 Z M 5.648438 5.757812 "/></g></g><g clip-rule="nonzero" clip-path="url(#38e890ec17)"><g clip-rule="nonzero" clip-path="url(#468f178f95)"><path style=" stroke:none;fill-rule:nonzero;fill:#ffffff;fill-opacity:1;" d="M 5.648438 5.757812 L 55.457031 5.757812 L 55.457031 50.976562 L 5.648438 50.976562 Z M 5.648438 5.757812 "/></g></g><g clip-rule="nonzero" clip-path="url(#223081dc71)"><g clip-rule="nonzero" clip-path="url(#893392a90d)"><path style=" stroke:none;fill-rule:nonzero;fill:#ffffff;fill-opacity:1;" d="M 5.648438 5.757812 L 55.457031 5.757812 L 55.457031 50.976562 L 5.648438 50.976562 Z M 5.648438 5.757812 "/></g></g><g clip-rule="nonzero" clip-path="url(#63c3535ee9)"><g clip-rule="nonzero" clip-path="url(#b5f2322439)"><path style=" stroke:none;fill-rule:nonzero;fill:#ba9754;fill-opacity:1;" d="M 5.648438 5.757812 L 55.457031 5.757812 L 55.457031 50.976562 L 5.648438 50.976562 Z M 5.648438 5.757812 "/></g></g><g clip-rule="nonzero" clip-path="url(#3fd4b8cee4)"><g clip-rule="nonzero" clip-path="url(#e759a3ac5f)"><path style=" stroke:none;fill-rule:nonzero;fill:#ba9754;fill-opacity:1;" d="M 5.648438 5.757812 L 55.457031 5.757812 L 55.457031 50.976562 L 5.648438 50.976562 Z M 5.648438 5.757812 "/></g></g><g clip-rule="nonzero" clip-path="url(#d61e49ac29)"><g clip-rule="nonzero" clip-path="url(#91c74dc0f7)"><path style=" stroke:none;fill-rule:nonzero;fill:#ba9754;fill-opacity:1;" d="M 5.648438 5.757812 L 55.457031 5.757812 L 55.457031 50.976562 L 5.648438 50.976562 Z M 5.648438 5.757812 "/></g></g><g clip-rule="nonzero" clip-path="url(#e22b3f1de8)"><g clip-rule="nonzero" clip-path="url(#7efd8936e5)"><path style=" stroke:none;fill-rule:nonzero;fill:#ba9754;fill-opacity:1;" d="M 5.648438 5.757812 L 55.457031 5.757812 L 55.457031 50.976562 L 5.648438 50.976562 Z M 5.648438 5.757812 "/></g></g><g clip-rule="nonzero" clip-path="url(#ebd7fe5478)"><g clip-rule="nonzero" clip-path="url(#9e24e906ff)"><path style=" stroke:none;fill-rule:nonzero;fill:#ba9754;fill-opacity:1;" d="M 5.648438 5.757812 L 55.457031 5.757812 L 55.457031 50.976562 L 5.648438 50.976562 Z M 5.648438 5.757812 "/></g></g><g clip-rule="nonzero" clip-path="url(#a277588cc8)"><g clip-rule="nonzero" clip-path="url(#cd7e1f3d5a)"><path style=" stroke:none;fill-rule:nonzero;fill:#ba9754;fill-opacity:1;" d="M 5.648438 5.757812 L 55.457031 5.757812 L 55.457031 50.976562 L 5.648438 50.976562 Z M 5.648438 5.757812 "/></g></g><g clip-rule="nonzero" clip-path="url(#ff8927af7a)"><g clip-rule="nonzero" clip-path="url(#2561d620ee)"><path style=" stroke:none;fill-rule:nonzero;fill:#ba9754;fill-opacity:1;" d="M 5.648438 5.757812 L 55.457031 5.757812 L 55.457031 50.976562 L 5.648438 50.976562 Z M 5.648438 5.757812 "/></g></g><g clip-rule="nonzero" clip-path="url(#690a083e0b)"><g clip-rule="nonzero" clip-path="url(#c57222ad1e)"><path style=" stroke:none;fill-rule:nonzero;fill:#ba9754;fill-opacity:1;" d="M 5.648438 5.757812 L 55.457031 5.757812 L 55.457031 50.976562 L 5.648438 50.976562 Z M 5.648438 5.757812 "/></g></g><g clip-rule="nonzero" clip-path="url(#a823b8af2c)"><g clip-rule="nonzero" clip-path="url(#824d4d87d4)"><path style=" stroke:none;fill-rule:nonzero;fill:#ba9754;fill-opacity:1;" d="M 5.648438 5.757812 L 55.457031 5.757812 L 55.457031 50.976562 L 5.648438 50.976562 Z M 5.648438 5.757812 "/></g></g><g style="fill:#ffffff;fill-opacity:1;"><g transform="translate(76.417246, 25.45828)"><path style="stroke:none" d="M -0.515625 3.75 L -0.515625 3.453125 C 0.304688 3.410156 0.921875 3.050781 1.328125 2.375 C 1.742188 1.707031 1.953125 0.789062 1.953125 -0.375 L 1.953125 -8.09375 C 1.953125 -8.6875 1.84375 -9.125 1.625 -9.40625 C 1.414062 -9.695312 1.019531 -9.84375 0.4375 -9.84375 L 0.4375 -10.265625 C 0.863281 -10.222656 1.273438 -10.203125 1.671875 -10.203125 C 2.054688 -10.203125 2.425781 -10.222656 2.78125 -10.265625 C 3.132812 -10.316406 3.457031 -10.390625 3.75 -10.484375 L 3.75 -2.296875 C 3.75 -1.628906 3.703125 -0.992188 3.609375 -0.390625 C 3.515625 0.203125 3.359375 0.742188 3.140625 1.234375 C 2.929688 1.722656 2.65625 2.15625 2.3125 2.53125 C 1.976562 2.882812 1.566406 3.175781 1.078125 3.40625 C 0.597656 3.632812 0.0664062 3.75 -0.515625 3.75 Z M 2.671875 -15.234375 C 3.015625 -15.234375 3.3125 -15.109375 3.5625 -14.859375 C 3.820312 -14.609375 3.953125 -14.3125 3.953125 -13.96875 C 3.953125 -13.625 3.820312 -13.320312 3.5625 -13.0625 C 3.3125 -12.8125 3.015625 -12.6875 2.671875 -12.6875 C 2.328125 -12.6875 2.03125 -12.8125 1.78125 -13.0625 C 1.53125 -13.320312 1.40625 -13.625 1.40625 -13.96875 C 1.40625 -14.3125 1.53125 -14.609375 1.78125 -14.859375 C 2.03125 -15.109375 2.328125 -15.234375 2.671875 -15.234375 Z M 2.671875 -15.234375 "/></g></g><g style="fill:#ffffff;fill-opacity:1;"><g transform="translate(81.737075, 25.45828)"><path style="stroke:none" d="M 5.421875 -10.53125 C 6.585938 -10.53125 7.5 -10.175781 8.15625 -9.46875 C 8.8125 -8.757812 9.140625 -7.65625 9.140625 -6.15625 L 2.109375 -6.15625 L 2.09375 -6.53125 L 7.234375 -6.53125 C 7.253906 -7.1875 7.195312 -7.785156 7.0625 -8.328125 C 6.9375 -8.878906 6.726562 -9.320312 6.4375 -9.65625 C 6.15625 -9.988281 5.789062 -10.15625 5.34375 -10.15625 C 4.726562 -10.15625 4.1875 -9.847656 3.71875 -9.234375 C 3.25 -8.628906 2.96875 -7.660156 2.875 -6.328125 L 2.921875 -6.25 C 2.898438 -6.050781 2.878906 -5.832031 2.859375 -5.59375 C 2.847656 -5.351562 2.84375 -5.113281 2.84375 -4.875 C 2.84375 -3.976562 2.988281 -3.203125 3.28125 -2.546875 C 3.570312 -1.898438 3.953125 -1.40625 4.421875 -1.0625 C 4.898438 -0.726562 5.390625 -0.5625 5.890625 -0.5625 C 6.296875 -0.5625 6.675781 -0.625 7.03125 -0.75 C 7.382812 -0.875 7.710938 -1.082031 8.015625 -1.375 C 8.328125 -1.664062 8.597656 -2.054688 8.828125 -2.546875 L 9.21875 -2.390625 C 9.070312 -1.953125 8.832031 -1.523438 8.5 -1.109375 C 8.175781 -0.703125 7.757812 -0.367188 7.25 -0.109375 C 6.75 0.148438 6.164062 0.28125 5.5 0.28125 C 4.539062 0.28125 3.71875 0.0625 3.03125 -0.375 C 2.351562 -0.8125 1.832031 -1.414062 1.46875 -2.1875 C 1.101562 -2.96875 0.921875 -3.863281 0.921875 -4.875 C 0.921875 -6.050781 1.101562 -7.054688 1.46875 -7.890625 C 1.84375 -8.734375 2.367188 -9.382812 3.046875 -9.84375 C 3.722656 -10.300781 4.515625 -10.53125 5.421875 -10.53125 Z M 5.421875 -10.53125 "/></g></g><g style="fill:#ffffff;fill-opacity:1;"><g transform="translate(91.739141, 25.45828)"><path style="stroke:none" d="M 4.34375 -10.265625 L 4.34375 -9.84375 C 4.007812 -9.84375 3.71875 -9.816406 3.46875 -9.765625 C 3.21875 -9.722656 3.050781 -9.585938 2.96875 -9.359375 C 2.882812 -9.140625 2.941406 -8.742188 3.140625 -8.171875 L 5.21875 -2.234375 L 5.078125 -2.25 L 8.015625 -10.34375 L 8.40625 -10.1875 L 4.765625 0.09375 C 4.710938 0.09375 4.65625 0.09375 4.59375 0.09375 C 4.539062 0.09375 4.484375 0.09375 4.421875 0.09375 L 1.15625 -8.71875 C 0.945312 -9.25 0.738281 -9.566406 0.53125 -9.671875 C 0.320312 -9.785156 0.144531 -9.84375 0 -9.84375 L 0 -10.265625 C 0.257812 -10.222656 0.53125 -10.191406 0.8125 -10.171875 C 1.101562 -10.148438 1.414062 -10.140625 1.75 -10.140625 C 2.164062 -10.140625 2.601562 -10.148438 3.0625 -10.171875 C 3.519531 -10.203125 3.945312 -10.234375 4.34375 -10.265625 Z M 15.28125 -10.265625 L 15.28125 -9.859375 C 15.03125 -9.835938 14.796875 -9.726562 14.578125 -9.53125 C 14.359375 -9.34375 14.160156 -8.988281 13.984375 -8.46875 L 11.09375 0.09375 C 11.039062 0.09375 10.988281 0.09375 10.9375 0.09375 C 10.882812 0.09375 10.820312 0.09375 10.75 0.09375 L 7.546875 -8.046875 L 8.015625 -10.34375 C 8.085938 -10.34375 8.160156 -10.34375 8.234375 -10.34375 C 8.304688 -10.34375 8.382812 -10.34375 8.46875 -10.34375 L 11.578125 -2.109375 L 11.421875 -1.984375 L 13.390625 -7.984375 C 13.535156 -8.441406 13.585938 -8.796875 13.546875 -9.046875 C 13.515625 -9.304688 13.382812 -9.5 13.15625 -9.625 C 12.925781 -9.757812 12.570312 -9.835938 12.09375 -9.859375 L 12.09375 -10.265625 C 12.332031 -10.242188 12.535156 -10.226562 12.703125 -10.21875 C 12.878906 -10.21875 13.050781 -10.210938 13.21875 -10.203125 C 13.382812 -10.203125 13.566406 -10.203125 13.765625 -10.203125 C 14.066406 -10.203125 14.34375 -10.207031 14.59375 -10.21875 C 14.84375 -10.226562 15.070312 -10.242188 15.28125 -10.265625 Z M 15.28125 -10.265625 "/></g></g><g style="fill:#ffffff;fill-opacity:1;"><g transform="translate(106.582797, 25.45828)"><path style="stroke:none" d="M 3.75 -15.625 L 3.75 -1.859375 C 3.75 -1.296875 3.863281 -0.914062 4.09375 -0.71875 C 4.320312 -0.519531 4.710938 -0.421875 5.265625 -0.421875 L 5.265625 0 C 5.035156 -0.0078125 4.691406 -0.0234375 4.234375 -0.046875 C 3.773438 -0.0664062 3.3125 -0.078125 2.84375 -0.078125 C 2.394531 -0.078125 1.9375 -0.0664062 1.46875 -0.046875 C 1.007812 -0.0234375 0.664062 -0.0078125 0.4375 0 L 0.4375 -0.421875 C 0.976562 -0.421875 1.363281 -0.519531 1.59375 -0.71875 C 1.832031 -0.914062 1.953125 -1.296875 1.953125 -1.859375 L 1.953125 -13.234375 C 1.953125 -13.828125 1.84375 -14.265625 1.625 -14.546875 C 1.414062 -14.835938 1.019531 -14.984375 0.4375 -14.984375 L 0.4375 -15.40625 C 0.863281 -15.363281 1.273438 -15.34375 1.671875 -15.34375 C 2.054688 -15.34375 2.425781 -15.363281 2.78125 -15.40625 C 3.132812 -15.457031 3.457031 -15.53125 3.75 -15.625 Z M 3.75 -15.625 "/></g></g><g style="fill:#ffffff;fill-opacity:1;"><g transform="translate(112.281194, 25.45828)"><path style="stroke:none" d="M 3.40625 0.140625 C 2.863281 0.140625 2.390625 0.0351562 1.984375 -0.171875 C 1.585938 -0.378906 1.285156 -0.664062 1.078125 -1.03125 C 0.878906 -1.40625 0.78125 -1.835938 0.78125 -2.328125 C 0.78125 -2.910156 0.914062 -3.390625 1.1875 -3.765625 C 1.457031 -4.140625 1.804688 -4.4375 2.234375 -4.65625 C 2.660156 -4.882812 3.109375 -5.070312 3.578125 -5.21875 C 4.046875 -5.375 4.492188 -5.519531 4.921875 -5.65625 C 5.347656 -5.800781 5.695312 -5.96875 5.96875 -6.15625 C 6.238281 -6.34375 6.375 -6.585938 6.375 -6.890625 L 6.375 -8.125 C 6.375 -8.6875 6.289062 -9.113281 6.125 -9.40625 C 5.957031 -9.695312 5.734375 -9.890625 5.453125 -9.984375 C 5.179688 -10.085938 4.867188 -10.140625 4.515625 -10.140625 C 4.191406 -10.140625 3.835938 -10.09375 3.453125 -10 C 3.078125 -9.90625 2.773438 -9.710938 2.546875 -9.421875 C 2.796875 -9.367188 3.015625 -9.234375 3.203125 -9.015625 C 3.390625 -8.804688 3.484375 -8.535156 3.484375 -8.203125 C 3.484375 -7.867188 3.375 -7.601562 3.15625 -7.40625 C 2.945312 -7.21875 2.675781 -7.125 2.34375 -7.125 C 1.957031 -7.125 1.675781 -7.25 1.5 -7.5 C 1.320312 -7.75 1.234375 -8.023438 1.234375 -8.328125 C 1.234375 -8.671875 1.316406 -8.945312 1.484375 -9.15625 C 1.660156 -9.375 1.882812 -9.578125 2.15625 -9.765625 C 2.457031 -9.972656 2.847656 -10.148438 3.328125 -10.296875 C 3.816406 -10.453125 4.367188 -10.53125 4.984375 -10.53125 C 5.523438 -10.53125 5.988281 -10.46875 6.375 -10.34375 C 6.757812 -10.21875 7.078125 -10.035156 7.328125 -9.796875 C 7.671875 -9.484375 7.894531 -9.097656 8 -8.640625 C 8.113281 -8.179688 8.171875 -7.632812 8.171875 -7 L 8.171875 -1.453125 C 8.171875 -1.117188 8.21875 -0.878906 8.3125 -0.734375 C 8.414062 -0.585938 8.570312 -0.515625 8.78125 -0.515625 C 8.925781 -0.515625 9.066406 -0.546875 9.203125 -0.609375 C 9.335938 -0.679688 9.5 -0.789062 9.6875 -0.9375 L 9.90625 -0.59375 C 9.625 -0.382812 9.351562 -0.207031 9.09375 -0.0625 C 8.84375 0.0703125 8.507812 0.140625 8.09375 0.140625 C 7.707031 0.140625 7.382812 0.0703125 7.125 -0.0625 C 6.875 -0.195312 6.6875 -0.390625 6.5625 -0.640625 C 6.4375 -0.898438 6.375 -1.234375 6.375 -1.640625 C 6.019531 -1.035156 5.59375 -0.585938 5.09375 -0.296875 C 4.59375 -0.00390625 4.03125 0.140625 3.40625 0.140625 Z M 4.125 -0.65625 C 4.5625 -0.65625 4.96875 -0.78125 5.34375 -1.03125 C 5.726562 -1.289062 6.070312 -1.671875 6.375 -2.171875 L 6.375 -6.078125 C 6.21875 -5.847656 5.984375 -5.65625 5.671875 -5.5 C 5.367188 -5.351562 5.035156 -5.203125 4.671875 -5.046875 C 4.316406 -4.898438 3.976562 -4.722656 3.65625 -4.515625 C 3.332031 -4.304688 3.0625 -4.035156 2.84375 -3.703125 C 2.632812 -3.367188 2.53125 -2.9375 2.53125 -2.40625 C 2.53125 -1.875 2.671875 -1.445312 2.953125 -1.125 C 3.242188 -0.8125 3.632812 -0.65625 4.125 -0.65625 Z M 4.125 -0.65625 "/></g></g><g style="fill:#ffffff;fill-opacity:1;"><g transform="translate(122.203581, 25.45828)"><path style="stroke:none" d="M 7.265625 -10.53125 C 7.773438 -10.53125 8.195312 -10.460938 8.53125 -10.328125 C 8.875 -10.203125 9.160156 -10.019531 9.390625 -9.78125 C 9.640625 -9.519531 9.816406 -9.1875 9.921875 -8.78125 C 10.023438 -8.382812 10.078125 -7.847656 10.078125 -7.171875 L 10.078125 -1.859375 C 10.078125 -1.296875 10.191406 -0.914062 10.421875 -0.71875 C 10.660156 -0.519531 11.050781 -0.421875 11.59375 -0.421875 L 11.59375 0 C 11.363281 -0.0078125 11.015625 -0.0234375 10.546875 -0.046875 C 10.085938 -0.0664062 9.640625 -0.078125 9.203125 -0.078125 C 8.765625 -0.078125 8.335938 -0.0664062 7.921875 -0.046875 C 7.503906 -0.0234375 7.1875 -0.0078125 6.96875 0 L 6.96875 -0.421875 C 7.445312 -0.421875 7.785156 -0.519531 7.984375 -0.71875 C 8.179688 -0.914062 8.28125 -1.296875 8.28125 -1.859375 L 8.28125 -7.609375 C 8.28125 -8.023438 8.25 -8.40625 8.1875 -8.75 C 8.125 -9.09375 7.972656 -9.367188 7.734375 -9.578125 C 7.503906 -9.796875 7.148438 -9.90625 6.671875 -9.90625 C 6.117188 -9.90625 5.628906 -9.742188 5.203125 -9.421875 C 4.785156 -9.097656 4.460938 -8.660156 4.234375 -8.109375 C 4.003906 -7.566406 3.890625 -6.957031 3.890625 -6.28125 L 3.890625 -1.859375 C 3.890625 -1.296875 3.988281 -0.914062 4.1875 -0.71875 C 4.382812 -0.519531 4.722656 -0.421875 5.203125 -0.421875 L 5.203125 0 C 4.984375 -0.0078125 4.664062 -0.0234375 4.25 -0.046875 C 3.832031 -0.0664062 3.40625 -0.078125 2.96875 -0.078125 C 2.53125 -0.078125 2.078125 -0.0664062 1.609375 -0.046875 C 1.148438 -0.0234375 0.804688 -0.0078125 0.578125 0 L 0.578125 -0.421875 C 1.117188 -0.421875 1.503906 -0.519531 1.734375 -0.71875 C 1.972656 -0.914062 2.09375 -1.296875 2.09375 -1.859375 L 2.09375 -8.09375 C 2.09375 -8.6875 1.984375 -9.125 1.765625 -9.40625 C 1.554688 -9.695312 1.160156 -9.84375 0.578125 -9.84375 L 0.578125 -10.265625 C 1.003906 -10.222656 1.414062 -10.203125 1.8125 -10.203125 C 2.195312 -10.203125 2.566406 -10.222656 2.921875 -10.265625 C 3.273438 -10.316406 3.597656 -10.390625 3.890625 -10.484375 L 3.890625 -8.125 C 4.234375 -9.03125 4.710938 -9.65625 5.328125 -10 C 5.941406 -10.351562 6.585938 -10.53125 7.265625 -10.53125 Z M 7.265625 -10.53125 "/></g></g><g style="fill:#ffffff;fill-opacity:1;"><g transform="translate(134.098493, 25.45828)"><path style="stroke:none" d="M 9.640625 -15.625 L 9.640625 -2.171875 C 9.640625 -1.578125 9.75 -1.132812 9.96875 -0.84375 C 10.1875 -0.5625 10.582031 -0.421875 11.15625 -0.421875 L 11.15625 0 C 10.738281 -0.0390625 10.328125 -0.0625 9.921875 -0.0625 C 9.535156 -0.0625 9.164062 -0.0390625 8.8125 0 C 8.457031 0.0390625 8.132812 0.113281 7.84375 0.21875 L 7.84375 -13.234375 C 7.84375 -13.828125 7.738281 -14.265625 7.53125 -14.546875 C 7.320312 -14.835938 6.921875 -14.984375 6.328125 -14.984375 L 6.328125 -15.40625 C 6.753906 -15.363281 7.164062 -15.34375 7.5625 -15.34375 C 7.945312 -15.34375 8.316406 -15.363281 8.671875 -15.40625 C 9.023438 -15.457031 9.347656 -15.53125 9.640625 -15.625 Z M 5.453125 -10.53125 C 6.035156 -10.53125 6.582031 -10.390625 7.09375 -10.109375 C 7.613281 -9.835938 7.957031 -9.363281 8.125 -8.6875 L 7.875 -8.484375 C 7.6875 -9.046875 7.394531 -9.453125 7 -9.703125 C 6.613281 -9.953125 6.15625 -10.078125 5.625 -10.078125 C 4.832031 -10.078125 4.175781 -9.671875 3.65625 -8.859375 C 3.132812 -8.054688 2.878906 -6.8125 2.890625 -5.125 C 2.890625 -4.039062 2.988281 -3.144531 3.1875 -2.4375 C 3.394531 -1.726562 3.703125 -1.195312 4.109375 -0.84375 C 4.515625 -0.488281 5.007812 -0.3125 5.59375 -0.3125 C 6.15625 -0.3125 6.660156 -0.550781 7.109375 -1.03125 C 7.566406 -1.507812 7.835938 -2.210938 7.921875 -3.140625 L 8.171875 -2.875 C 8.066406 -1.863281 7.742188 -1.082031 7.203125 -0.53125 C 6.660156 0.0078125 5.929688 0.28125 5.015625 0.28125 C 4.191406 0.28125 3.472656 0.0820312 2.859375 -0.3125 C 2.242188 -0.71875 1.769531 -1.316406 1.4375 -2.109375 C 1.113281 -2.910156 0.953125 -3.914062 0.953125 -5.125 C 0.953125 -6.332031 1.160156 -7.335938 1.578125 -8.140625 C 2.003906 -8.941406 2.554688 -9.539062 3.234375 -9.9375 C 3.921875 -10.332031 4.660156 -10.53125 5.453125 -10.53125 Z M 5.453125 -10.53125 "/></g></g><g style="fill:#ffffff;fill-opacity:1;"><g transform="translate(69.027483, 43.271418)"><path style="stroke:none" d="M 1.546875 0 L 0.5625 0 L 0.5625 -4.96875 L 2.515625 -4.96875 C 2.796875 -4.96875 3.035156 -4.910156 3.234375 -4.796875 C 3.429688 -4.691406 3.585938 -4.546875 3.703125 -4.359375 C 3.816406 -4.179688 3.894531 -3.984375 3.9375 -3.765625 C 3.976562 -3.546875 3.976562 -3.328125 3.9375 -3.109375 C 3.894531 -2.890625 3.8125 -2.6875 3.6875 -2.5 C 3.570312 -2.320312 3.414062 -2.175781 3.21875 -2.0625 C 3.019531 -1.957031 2.785156 -1.90625 2.515625 -1.90625 L 1.546875 -1.90625 Z M 1.546875 -2.875 L 2.4375 -2.875 C 2.570312 -2.875 2.675781 -2.910156 2.75 -2.984375 C 2.832031 -3.054688 2.882812 -3.144531 2.90625 -3.25 C 2.9375 -3.363281 2.9375 -3.476562 2.90625 -3.59375 C 2.882812 -3.707031 2.832031 -3.800781 2.75 -3.875 C 2.675781 -3.945312 2.570312 -3.984375 2.4375 -3.984375 L 1.546875 -3.984375 Z M 1.546875 -2.875 "/></g></g><g style="fill:#ffffff;fill-opacity:1;"><g transform="translate(75.034114, 43.271418)"><path style="stroke:none" d="M 3.03125 0 L 2.03125 -1.90625 L 1.546875 -1.90625 L 1.546875 0 L 0.5625 0 L 0.5625 -4.984375 L 2.515625 -4.984375 C 2.816406 -4.984375 3.070312 -4.921875 3.28125 -4.796875 C 3.488281 -4.671875 3.648438 -4.507812 3.765625 -4.3125 C 3.878906 -4.113281 3.945312 -3.898438 3.96875 -3.671875 C 4 -3.441406 3.984375 -3.21875 3.921875 -3 C 3.859375 -2.78125 3.75 -2.582031 3.59375 -2.40625 C 3.445312 -2.238281 3.253906 -2.125 3.015625 -2.0625 L 4.171875 0 Z M 1.546875 -2.875 L 2.4375 -2.875 C 2.570312 -2.875 2.675781 -2.910156 2.75 -2.984375 C 2.832031 -3.054688 2.890625 -3.144531 2.921875 -3.25 C 2.953125 -3.363281 2.953125 -3.476562 2.921875 -3.59375 C 2.890625 -3.707031 2.832031 -3.800781 2.75 -3.875 C 2.675781 -3.945312 2.570312 -3.984375 2.4375 -3.984375 L 1.546875 -3.984375 Z M 1.546875 -2.875 "/></g></g><g style="fill:#ffffff;fill-opacity:1;"><g transform="translate(81.110505, 43.271418)"><path style="stroke:none" d="M 3.140625 0 L 0.5625 0 L 0.5625 -4.984375 L 3.046875 -4.984375 L 3.046875 -3.984375 L 1.546875 -3.984375 L 1.546875 -2.984375 L 2.859375 -2.984375 L 2.859375 -2 L 1.546875 -2 L 1.546875 -1 L 3.140625 -1 Z M 3.140625 0 "/></g></g><g style="fill:#ffffff;fill-opacity:1;"><g transform="translate(86.42648, 43.271418)"><path style="stroke:none" d="M 3.734375 -3.828125 C 3.640625 -3.878906 3.523438 -3.925781 3.390625 -3.96875 C 3.253906 -4.019531 3.078125 -4.046875 2.859375 -4.046875 C 2.578125 -4.046875 2.335938 -3.988281 2.140625 -3.875 C 1.941406 -3.769531 1.78125 -3.625 1.65625 -3.4375 C 1.539062 -3.257812 1.460938 -3.0625 1.421875 -2.84375 C 1.378906 -2.625 1.378906 -2.40625 1.421875 -2.1875 C 1.460938 -1.976562 1.539062 -1.78125 1.65625 -1.59375 C 1.78125 -1.414062 1.941406 -1.269531 2.140625 -1.15625 C 2.335938 -1.050781 2.578125 -1 2.859375 -1 C 3.078125 -1 3.269531 -1.023438 3.4375 -1.078125 C 3.601562 -1.128906 3.734375 -1.175781 3.828125 -1.21875 L 3.953125 -0.1875 C 3.804688 -0.132812 3.628906 -0.0859375 3.421875 -0.046875 C 3.222656 -0.00390625 3.035156 0.015625 2.859375 0.015625 C 2.441406 0.015625 2.070312 -0.0507812 1.75 -0.1875 C 1.4375 -0.332031 1.171875 -0.523438 0.953125 -0.765625 C 0.742188 -1.015625 0.585938 -1.285156 0.484375 -1.578125 C 0.378906 -1.878906 0.328125 -2.191406 0.328125 -2.515625 C 0.328125 -2.835938 0.378906 -3.144531 0.484375 -3.4375 C 0.585938 -3.738281 0.742188 -4.007812 0.953125 -4.25 C 1.171875 -4.5 1.4375 -4.691406 1.75 -4.828125 C 2.070312 -4.972656 2.441406 -5.046875 2.859375 -5.046875 C 3.222656 -5.046875 3.550781 -4.976562 3.84375 -4.84375 Z M 3.734375 -3.828125 "/></g></g><g style="fill:#ffffff;fill-opacity:1;"><g transform="translate(92.426129, 43.271418)"><path style="stroke:none" d="M 1.546875 0 L 0.5625 0 L 0.5625 -4.984375 L 1.546875 -4.984375 Z M 1.546875 0 "/></g></g><g style="fill:#ffffff;fill-opacity:1;"><g transform="translate(96.346827, 43.271418)"><path style="stroke:none" d="M 2.953125 0.0625 C 2.523438 0.0625 2.148438 -0.00390625 1.828125 -0.140625 C 1.503906 -0.285156 1.234375 -0.476562 1.015625 -0.71875 C 0.804688 -0.96875 0.648438 -1.242188 0.546875 -1.546875 C 0.441406 -1.859375 0.390625 -2.175781 0.390625 -2.5 C 0.390625 -2.820312 0.441406 -3.132812 0.546875 -3.4375 C 0.648438 -3.75 0.804688 -4.023438 1.015625 -4.265625 C 1.234375 -4.515625 1.503906 -4.707031 1.828125 -4.84375 C 2.148438 -4.988281 2.523438 -5.0625 2.953125 -5.0625 C 3.378906 -5.0625 3.753906 -4.988281 4.078125 -4.84375 C 4.398438 -4.707031 4.664062 -4.515625 4.875 -4.265625 C 5.09375 -4.023438 5.253906 -3.75 5.359375 -3.4375 C 5.472656 -3.132812 5.53125 -2.820312 5.53125 -2.5 C 5.53125 -2.175781 5.472656 -1.859375 5.359375 -1.546875 C 5.253906 -1.242188 5.09375 -0.96875 4.875 -0.71875 C 4.664062 -0.476562 4.398438 -0.285156 4.078125 -0.140625 C 3.753906 -0.00390625 3.378906 0.0625 2.953125 0.0625 Z M 2.953125 -0.96875 C 3.234375 -0.96875 3.476562 -1.019531 3.6875 -1.125 C 3.894531 -1.238281 4.054688 -1.382812 4.171875 -1.5625 C 4.296875 -1.75 4.378906 -1.953125 4.421875 -2.171875 C 4.460938 -2.390625 4.460938 -2.609375 4.421875 -2.828125 C 4.378906 -3.046875 4.296875 -3.242188 4.171875 -3.421875 C 4.054688 -3.609375 3.894531 -3.757812 3.6875 -3.875 C 3.476562 -3.988281 3.234375 -4.046875 2.953125 -4.046875 C 2.671875 -4.046875 2.425781 -3.988281 2.21875 -3.875 C 2.019531 -3.757812 1.859375 -3.609375 1.734375 -3.421875 C 1.609375 -3.242188 1.523438 -3.046875 1.484375 -2.828125 C 1.441406 -2.609375 1.441406 -2.390625 1.484375 -2.171875 C 1.523438 -1.953125 1.609375 -1.75 1.734375 -1.5625 C 1.859375 -1.382812 2.019531 -1.238281 2.21875 -1.125 C 2.425781 -1.019531 2.671875 -0.96875 2.953125 -0.96875 Z M 2.953125 -0.96875 "/></g></g><g style="fill:#ffffff;fill-opacity:1;"><g transform="translate(104.055692, 43.271418)"><path style="stroke:none" d="M 4.125 -1.734375 C 4.125 -1.390625 4.0625 -1.097656 3.9375 -0.859375 C 3.8125 -0.617188 3.640625 -0.425781 3.421875 -0.28125 C 3.203125 -0.132812 2.960938 -0.0390625 2.703125 0 C 2.453125 0.0507812 2.195312 0.0507812 1.9375 0 C 1.6875 -0.0390625 1.453125 -0.132812 1.234375 -0.28125 C 1.023438 -0.425781 0.851562 -0.617188 0.71875 -0.859375 C 0.59375 -1.097656 0.53125 -1.390625 0.53125 -1.734375 L 0.53125 -4.984375 L 1.53125 -4.984375 L 1.53125 -1.734375 C 1.53125 -1.523438 1.582031 -1.359375 1.6875 -1.234375 C 1.800781 -1.109375 1.9375 -1.023438 2.09375 -0.984375 C 2.25 -0.941406 2.40625 -0.941406 2.5625 -0.984375 C 2.726562 -1.023438 2.863281 -1.109375 2.96875 -1.234375 C 3.082031 -1.359375 3.140625 -1.523438 3.140625 -1.734375 L 3.140625 -4.984375 L 4.125 -4.984375 Z M 4.125 -1.734375 "/></g></g><g style="fill:#ffffff;fill-opacity:1;"><g transform="translate(110.536718, 43.271418)"><path style="stroke:none" d="M 0.328125 -0.328125 L 0.453125 -1.359375 C 0.640625 -1.222656 0.828125 -1.125 1.015625 -1.0625 C 1.203125 -1.007812 1.375 -0.976562 1.53125 -0.96875 C 1.6875 -0.96875 1.800781 -0.96875 1.875 -0.96875 C 2.019531 -0.976562 2.144531 -1.03125 2.25 -1.125 C 2.351562 -1.21875 2.398438 -1.332031 2.390625 -1.46875 C 2.378906 -1.613281 2.320312 -1.722656 2.21875 -1.796875 C 2.125 -1.867188 2.007812 -1.929688 1.875 -1.984375 C 1.613281 -2.078125 1.367188 -2.1875 1.140625 -2.3125 C 0.921875 -2.445312 0.738281 -2.609375 0.59375 -2.796875 C 0.457031 -2.984375 0.390625 -3.21875 0.390625 -3.5 C 0.390625 -3.78125 0.445312 -4.03125 0.5625 -4.25 C 0.6875 -4.476562 0.851562 -4.660156 1.0625 -4.796875 C 1.28125 -4.929688 1.53125 -5.003906 1.8125 -5.015625 C 1.9375 -5.023438 2.09375 -5.019531 2.28125 -5 C 2.46875 -4.976562 2.722656 -4.914062 3.046875 -4.8125 L 2.921875 -3.84375 C 2.648438 -3.957031 2.429688 -4.019531 2.265625 -4.03125 C 2.097656 -4.050781 1.976562 -4.0625 1.90625 -4.0625 C 1.726562 -4.050781 1.597656 -3.988281 1.515625 -3.875 C 1.429688 -3.757812 1.394531 -3.632812 1.40625 -3.5 C 1.414062 -3.363281 1.472656 -3.257812 1.578125 -3.1875 C 1.691406 -3.113281 1.820312 -3.050781 1.96875 -3 C 2.226562 -2.90625 2.46875 -2.789062 2.6875 -2.65625 C 2.90625 -2.519531 3.078125 -2.351562 3.203125 -2.15625 C 3.335938 -1.96875 3.40625 -1.738281 3.40625 -1.46875 C 3.40625 -1.195312 3.34375 -0.945312 3.21875 -0.71875 C 3.101562 -0.5 2.929688 -0.320312 2.703125 -0.1875 C 2.484375 -0.0507812 2.21875 0.0234375 1.90625 0.046875 C 1.8125 0.046875 1.679688 0.0390625 1.515625 0.03125 C 1.359375 0.0195312 1.175781 -0.0078125 0.96875 -0.0625 C 0.769531 -0.113281 0.554688 -0.203125 0.328125 -0.328125 Z M 0.328125 -0.328125 "/></g></g><g style="fill:#ffffff;fill-opacity:1;"><g transform="translate(116.027093, 43.271418)"><path style="stroke:none" d=""/></g></g><g style="fill:#ffffff;fill-opacity:1;"><g transform="translate(119.808262, 43.271418)"><path style="stroke:none" d="M 2.84375 -2.875 L 4.8125 -5.0625 L 5.125 -5.0625 L 5.125 0 L 4.109375 0 L 4.125 -2.78125 L 2.84375 -1.4375 L 1.5625 -2.78125 L 1.5625 0 L 0.5625 0 L 0.5625 -5.0625 L 0.875 -5.0625 Z M 2.84375 -2.875 "/></g></g><g style="fill:#ffffff;fill-opacity:1;"><g transform="translate(127.300856, 43.271418)"><path style="stroke:none" d="M 3.140625 0 L 0.5625 0 L 0.5625 -4.984375 L 3.046875 -4.984375 L 3.046875 -3.984375 L 1.546875 -3.984375 L 1.546875 -2.984375 L 2.859375 -2.984375 L 2.859375 -2 L 1.546875 -2 L 1.546875 -1 L 3.140625 -1 Z M 3.140625 0 "/></g></g><g style="fill:#ffffff;fill-opacity:1;"><g transform="translate(132.61683, 43.271418)"><path style="stroke:none" d="M 2.375 0 L 1.375 0 L 1.375 -3.984375 L 0.140625 -3.984375 L 0.140625 -4.96875 L 3.609375 -4.96875 L 3.609375 -3.984375 L 2.375 -3.984375 Z M 2.375 0 "/></g></g><g style="fill:#ffffff;fill-opacity:1;"><g transform="translate(137.793275, 43.271418)"><path style="stroke:none" d="M 0.109375 0 L 2.203125 -5.15625 L 2.3125 -5.15625 L 4.40625 0 L 3.296875 0 L 3.09375 -0.53125 L 1.4375 -0.53125 L 1.234375 0 Z M 1.796875 -1.46875 L 2.71875 -1.46875 L 2.265625 -2.765625 Z M 1.796875 -1.46875 "/></g></g><g style="fill:#ffffff;fill-opacity:1;"><g transform="translate(144.148725, 43.271418)"><path style="stroke:none" d="M 0.5625 -4.984375 L 1.546875 -4.984375 L 1.546875 -1 L 3.140625 -1 L 3.140625 0 L 0.5625 0 Z M 0.5625 -4.984375 "/></g></g><g style="fill:#ffffff;fill-opacity:1;"><g transform="translate(149.387958, 43.271418)"><path style="stroke:none" d="M 0.328125 -0.328125 L 0.453125 -1.359375 C 0.640625 -1.222656 0.828125 -1.125 1.015625 -1.0625 C 1.203125 -1.007812 1.375 -0.976562 1.53125 -0.96875 C 1.6875 -0.96875 1.800781 -0.96875 1.875 -0.96875 C 2.019531 -0.976562 2.144531 -1.03125 2.25 -1.125 C 2.351562 -1.21875 2.398438 -1.332031 2.390625 -1.46875 C 2.378906 -1.613281 2.320312 -1.722656 2.21875 -1.796875 C 2.125 -1.867188 2.007812 -1.929688 1.875 -1.984375 C 1.613281 -2.078125 1.367188 -2.1875 1.140625 -2.3125 C 0.921875 -2.445312 0.738281 -2.609375 0.59375 -2.796875 C 0.457031 -2.984375 0.390625 -3.21875 0.390625 -3.5 C 0.390625 -3.78125 0.445312 -4.03125 0.5625 -4.25 C 0.6875 -4.476562 0.851562 -4.660156 1.0625 -4.796875 C 1.28125 -4.929688 1.53125 -5.003906 1.8125 -5.015625 C 1.9375 -5.023438 2.09375 -5.019531 2.28125 -5 C 2.46875 -4.976562 2.722656 -4.914062 3.046875 -4.8125 L 2.921875 -3.84375 C 2.648438 -3.957031 2.429688 -4.019531 2.265625 -4.03125 C 2.097656 -4.050781 1.976562 -4.0625 1.90625 -4.0625 C 1.726562 -4.050781 1.597656 -3.988281 1.515625 -3.875 C 1.429688 -3.757812 1.394531 -3.632812 1.40625 -3.5 C 1.414062 -3.363281 1.472656 -3.257812 1.578125 -3.1875 C 1.691406 -3.113281 1.820312 -3.050781 1.96875 -3 C 2.226562 -2.90625 2.46875 -2.789062 2.6875 -2.65625 C 2.90625 -2.519531 3.078125 -2.351562 3.203125 -2.15625 C 3.335938 -1.96875 3.40625 -1.738281 3.40625 -1.46875 C 3.40625 -1.195312 3.34375 -0.945312 3.21875 -0.71875 C 3.101562 -0.5 2.929688 -0.320312 2.703125 -0.1875 C 2.484375 -0.0507812 2.21875 0.0234375 1.90625 0.046875 C 1.8125 0.046875 1.679688 0.0390625 1.515625 0.03125 C 1.359375 0.0195312 1.175781 -0.0078125 0.96875 -0.0625 C 0.769531 -0.113281 0.554688 -0.203125 0.328125 -0.328125 Z M 0.328125 -0.328125 "/></g></g></g></svg>